<?xml version="1.0" encoding="UTF-8" standalone="no"?>
<!-- Created with Inkscape (http://www.inkscape.org/) -->

<svg
   width="256"
   height="256"
   viewBox="0 0 256 256"
   version="1.1"
   id="SVGRoot"
   sodipodi:docname="drawing.svg"
   inkscape:version="1.2.1 (9c6d41e410, 2022-07-14)"
   inkscape:export-filename="drawing-path.svg"
   inkscape:export-xdpi="96"
   inkscape:export-ydpi="96"
   xmlns:inkscape="http://www.inkscape.org/namespaces/inkscape"
   xmlns:sodipodi="http://sodipodi.sourceforge.net/DTD/sodipodi-0.dtd"
   xmlns="http://www.w3.org/2000/svg"
   xmlns:svg="http://www.w3.org/2000/svg">
  <sodipodi:namedview
     id="namedview1417"
     pagecolor="#ffffff"
     bordercolor="#000000"
     borderopacity="0.25"
     inkscape:showpageshadow="2"
     inkscape:pageopacity="0.0"
     inkscape:pagecheckerboard="0"
     inkscape:deskcolor="#d1d1d1"
     inkscape:document-units="px"
     showgrid="true"
     inkscape:zoom="2.1946698"
     inkscape:cx="134.87223"
     inkscape:cy="141.47914"
     inkscape:window-width="1920"
     inkscape:window-height="1012"
     inkscape:window-x="0"
     inkscape:window-y="0"
     inkscape:window-maximized="1"
     inkscape:current-layer="g314">
    <inkscape:grid
       type="xygrid"
       id="grid1903" />
  </sodipodi:namedview>
  <defs
     id="defs1412">
    <filter
       inkscape:label="Black Light"
       inkscape:menu="Color"
       inkscape:menu-tooltip="Light areas turn to black"
       style="color-interpolation-filters:sRGB"
       id="filter308"
       x="0"
       y="0"
       width="1"
       height="1">
      <feColorMatrix
         type="luminanceToAlpha"
         result="result2"
         id="feColorMatrix300" />
      <feComposite
         in2="SourceGraphic"
         operator="arithmetic"
         in="result2"
         k3="2"
         result="result4"
         id="feComposite302"
         k1="0"
         k2="0"
         k4="0" />
      <feBlend
         in="result4"
         mode="multiply"
         result="result3"
         in2="result2"
         id="feBlend304" />
      <feComposite
         in2="SourceGraphic"
         operator="in"
         in="result3"
         id="feComposite306" />
    </filter>
  </defs>
  <g
     inkscape:label="Layer 1"
     inkscape:groupmode="layer"
     id="layer1">
    <g
       id="g5093"
       transform="rotate(90,128.00004,128.00011)"
       style="filter:url(#filter308)">
      <g
         id="g314"
         transform="translate(14.125132,-3.6451953)">
        <g
           aria-label="D"
           transform="scale(-1.116305,0.89581252)"
           id="text3466"
           style="font-weight:300;font-size:195.334px;font-family:'Source Code Pro';-inkscape-font-specification:'Source Code Pro, Light';fill:#060606;stroke-width:16.278">
          <path
             d="m -102.83468,212.6561 h 29.8861 c 39.457468,0 58.014198,-25.78409 58.014198,-64.85089 0,-38.87147 -18.55673,-63.874218 -58.209532,-63.874218 h -29.690766 z m 8.985362,-7.61803 V 91.549018 h 19.924068 c 34.574118,0 49.614836,22.854082 49.614836,56.256192 0,33.59745 -15.040718,57.23286 -49.614836,57.23286 z"
             style="stroke-width:16.2779"
             id="path418" />
        </g>
        <g
           aria-label="M"
           transform="scale(0.99985502,1.000145)"
           id="text3470"
           style="font-weight:300;font-size:174.957px;font-family:'Source Code Pro';-inkscape-font-specification:'Source Code Pro, Light';fill:#060606;stroke-width:14.5798">
          <path
             d="m 114.4912,190.41003 h 7.6981 v -78.73065 c 0,-8.22298 -0.87478,-19.420223 -1.22469,-27.293288 h 0.34991 l 6.82332,19.770138 21.34476,55.63633 h 6.29845 l 21.69467,-55.63633 6.29845,-19.770138 h 0.52487 c -0.34991,7.873065 -1.04974,19.070308 -1.04974,27.293288 v 78.73065 h 7.87306 V 75.113371 h -10.67237 l -20.46997,54.061709 -6.82333,20.12006 h -0.69982 L 145.28363,129.17508 125.16357,75.113371 H 114.4912 Z"
             id="path415" />
        </g>
        <g
           aria-label="M"
           transform="scale(0.99985502,-1.000145)"
           id="text1167"
           style="font-weight:300;font-size:174.957px;font-family:'Source Code Pro';-inkscape-font-specification:'Source Code Pro, Light';fill:#060606;stroke-width:14.5798">
          <path
             d="m 114.49139,-75.113075 h 7.69811 v -78.730655 c 0,-8.22297 -0.87478,-19.42022 -1.2247,-27.29329 h 0.34992 l 6.82332,19.77014 21.34475,55.63633 h 6.29846 l 21.69466,-55.63633 6.29846,-19.77014 h 0.52487 c -0.34992,7.87307 -1.04974,19.07032 -1.04974,27.29329 v 78.730655 h 7.87306 V -190.40974 h -10.67238 l -20.46997,54.06171 -6.82332,20.12006 h -0.69983 l -7.17323,-20.12006 -20.12006,-54.06171 h -10.67238 z"
             id="path412" />
        </g>
      </g>
    </g>
  </g>
</svg>
